<svg version="1" xmlns="http://www.w3.org/2000/svg" width="682.667" height="682.667" viewBox="0 0 512.000000 512.000000"><path d="M246.5.7C127.4 5 26.2 92.8 4.6 210.5c-5.1 27.9-5.1 63.1 0 91 7.7 42.3 25.8 81.4 53.3 115.5 14.2 17.7 41.3 47 43.3 47 .5 0 .8-.7.8-1.5s1.6-3.2 3.5-5.4l3.5-3.8v-137l2.3-3.3c1.2-1.8 3.5-4.3 5-5.4 2.8-2.1 3.8-2.1 61.8-2.4 32.4-.1 58.9-.6 58.9-1 0-2.5-7.9-23.7-8.8-23.5-1.1.3-2-2.3-8.2-23.1l-4.1-13.9 3.4-3.6c1.8-2 4.5-5.1 6-6.9 2.3-2.9 2.8-3.1 3.3-1.5 1.4 4.9 5.4 11.2 9.6 15.4 4.4 4.4 15.6 11.9 17.8 11.9 2.2 0 13.4-7.5 17.8-11.9 4.2-4.2 8.2-10.5 9.6-15.4.5-1.6 1-1.4 3.3 1.5 1.5 1.8 4.2 4.9 6 6.9l3.4 3.6-4.1 13.9c-6.1 20.6-7.1 23.5-8 22.9-.5-.3-2.5 4.6-4.6 10.7-2 6.2-3.9 11.9-4.1 12.5-.4 1 12.4 1.3 58.5 1.5 58.1.3 59.1.3 61.9 2.4 1.5 1.1 3.8 3.6 5.1 5.4l2.2 3.3v137l3.5 3.8c1.9 2.2 3.5 4.6 3.5 5.4 0 .8.3 1.5.8 1.5 2 0 29.1-29.3 43.3-47 31.4-38.9 50-83.3 55.9-133 1.5-12.2 1.5-43.8 0-56-7-58.8-32.2-111-73.6-152.4C385.9 25.1 317.7-1.8 246.5.7zm44.1 107.1c2 1.3 3.4 5 3.4 9.2 0 4.4 1.1 7.2 4.1 10.6 1.2 1.2 2.4 5 3.2 9.5.9 5.3 1.6 7.5 2.8 7.7 1.3.2 1.7-.9 2.2-5.4.7-6.4 2.8-9.9 7.5-12.7l3.1-1.8 1.5 3c4.6 8.9-1.4 38.4-7.6 37.3-1.1-.1-2.2 1.7-3.8 6-7.6 21.1-31.7 59.1-39.1 61.7-4.1 1.4-19.7 1.4-23.8 0-7.4-2.6-31.4-40.3-39.1-61.7-1.6-4.3-2.7-6.1-3.8-6-6.2 1.1-12.3-28.4-7.7-37.2 1.5-3 4.5-3.9 7.2-2.2 2.1 1.3 4.3 7.9 4.3 12.7 0 3.7.3 4.5 1.9 4.5 1.5 0 2-1.1 2.6-5.8.4-3.1.8-9 .9-13 0-3.9.3-7.1.6-6.9 8.7 5.2 23 8.3 32.8 7.2 12.6-1.5 26.5-6.6 38.7-14.3 5.2-3.3 6.3-3.6 8.1-2.4z"/><path d="M107.6 464c-.4 1.4-.2 3.9.4 5.4.6 1.7 1.1 10.4 1.1 20.6 0 13.4.3 18.2 1.4 19.6 1.3 1.8 5.8 1.9 145.5 1.9 139.8 0 144.2-.1 145.5-1.9 1.1-1.4 1.4-6.1 1.4-19.3 0-10.1.5-19 1.2-21.2.8-2.8.8-4.4.1-5.7-1-1.6-1.1-1.2-1.2 2.4 0 2.4-.7 5.6-1.5 7.1-1.7 3.4-7 8.1-9.1 8.1-1 0-1.4 1.3-1.4 4.5 0 4.1-.2 4.5-2.5 4.5-2.2 0-2.5-.4-2.5-4v-4h-6c-3.3 0-6 .4-6 .9 0 .6-1.2.6-3.2 0-1.8-.5-5-.9-7-.9H360v13h-25v-13H177v13h-25v-13h-3.8c-2 0-5.2.4-7 .9-2 .6-3.2.6-3.2 0 0-.5-2.7-.9-6-.9h-6v4c0 3.6-.2 4-2.5 4s-2.5-.4-2.5-4.5c0-3.2-.4-4.5-1.4-4.5-1.8 0-7.3-4.5-8.8-7.4-.7-1.1-1.5-4.4-1.8-7.1-.5-4.2-.7-4.6-1.4-2.5zm35.4 25c0 .5-.9 1-1.9 1-1.1 0-2.3-.5-2.6-1-.4-.6.5-1 1.9-1s2.6.4 2.6 1zm230.5 0c-.3.5-1.5 1-2.6 1-1 0-1.9-.5-1.9-1 0-.6 1.2-1 2.6-1 1.4 0 2.3.4 1.9 1z"/></svg>